<svg xmlns="http://www.w3.org/2000/svg" viewBox="0 0 1200 300" width="1200" height="300" role="img" aria-label="Space" preserveAspectRatio="xMidYMid slice">
  <defs>
    <filter id="rough" x="-15%" y="-40%" width="130%" height="180%">
      <feTurbulence type="fractalNoise" baseFrequency="0.018 0.024" numOctaves="3" seed="93" result="n"/>
      <feDisplacementMap in="SourceGraphic" in2="n" scale="13" xChannelSelector="R" yChannelSelector="G"/>
    </filter>
    <filter id="soft"><feGaussianBlur stdDeviation="18"/></filter>
    <filter id="canvas" x="0" y="0" width="100%" height="100%">
      <feTurbulence type="fractalNoise" baseFrequency="0.9" numOctaves="2" seed="75" result="t"/>
      <feColorMatrix in="t" type="matrix" values="0 0 0 0 0  0 0 0 0 0  0 0 0 0 0  0 0 0 0.6 0"/>
    </filter>
    <style>
      .cap { font-family: "Marker Felt", "Segoe Print", "Bradley Hand", "Brush Script MT", "Comic Sans MS", cursive; font-weight: 700; }
    </style>
  </defs>
  <rect width="1200" height="300" fill="#FBF7EF"/>
  <g filter="url(#soft)">
    <ellipse cx="38.2" cy="100.7" rx="443" ry="135.4" fill="#E9D4AE" opacity="0.9"/>
    <ellipse cx="821.9" cy="0.6" rx="362" ry="122.9" fill="#F3E8D5" opacity="0.8"/>
    <ellipse cx="452.2" cy="176.8" rx="339.4" ry="184.8" fill="#F3E8D5" opacity="0.6"/>
  </g>
  <g filter="url(#rough)">
    <path d="M -5.7 244 C 118.7 117.3, 864.2 355.5, 1175.2 235.8" fill="none" stroke="#E64A38" stroke-width="30.8" stroke-linecap="round" opacity="0.9"/>
    <path d="M -5.7 244 C 118.7 117.3, 864.2 355.5, 1175.2 235.8" fill="none" stroke="#37200F" stroke-width="12.2" stroke-linecap="round" opacity="0.7"/>
    <path d="M 100.5 254.5 C 504.2 333.8, 936.6 333.8, 1105.9 230.3" fill="none" stroke="#1C3CC0" stroke-width="29.9" stroke-linecap="round" opacity="1"/>
    <path d="M 12 210.1 C 240.7 141.6, 1039.5 141.6, 1199.1 214.8" fill="none" stroke="#E64A38" stroke-width="25.7" stroke-linecap="round" opacity="0.8"/>
    <path d="M -7.2 204.9 C 14.8 236.2, 656.8 236.2, 1202.1 198.3" fill="none" stroke="#EFAE16" stroke-width="24.5" stroke-linecap="round" opacity="0.9"/>
    <path d="M -7.2 204.9 C 14.8 236.2, 656.8 236.2, 1202.1 198.3" fill="none" stroke="#EFAE16" stroke-width="10.5" stroke-linecap="round" opacity="0.7"/>
    <path d="M 101.1 106.1 C 308.9 175.6, 1041.5 -3.1, 1170.1 94.2" fill="none" stroke="#1C3CC0" stroke-width="43.5" stroke-linecap="round" opacity="0.9"/>
    <path d="M 101.1 106.1 C 308.9 175.6, 1041.5 -3.1, 1170.1 94.2" fill="none" stroke="#E64A38" stroke-width="18.8" stroke-linecap="round" opacity="0.6"/>
    <polygon points="205.3,229.1 181.5,241.5 160.5,242 152.5,229.1 152.4,206.3 188.6,208" fill="#8E4422" opacity="0.6"/>
  </g>
  <g>
    <path d="M 607.9 254.1 q 7.2 31.5, 1.8 63" fill="none" stroke="#E64A38" stroke-width="3.3" stroke-linecap="round" opacity="0.5"/>
    <circle cx="606.3" cy="317.2" r="5.7" fill="#E64A38" opacity="0.6"/>
    <path d="M 210.1 203.4 q 0.6 17.8, 5.1 35.7" fill="none" stroke="#E64A38" stroke-width="4.6" stroke-linecap="round" opacity="0.6"/>
    <circle cx="215.5" cy="239.1" r="6.2" fill="#E64A38" opacity="0.7"/>
    <path d="M 953.8 188.2 q -6.1 54.8, -5.7 109.7" fill="none" stroke="#EFAE16" stroke-width="2.5" stroke-linecap="round" opacity="0.7"/>
    <circle cx="949" cy="297.9" r="4.2" fill="#EFAE16" opacity="0.5"/>
  </g>
  <g>
    <circle cx="186.2" cy="161.6" r="3.8" fill="#B8481A" opacity="0.6"/>
    <ellipse cx="247.2" cy="153.1" rx="10.8" ry="1.3" fill="#EFAE16" opacity="0.5" transform="rotate(81.1 247.2 153.1)"/>
    <circle cx="1163.6" cy="213" r="2.8" fill="#EFAE16" opacity="0.5"/>
    <circle cx="558.2" cy="242" r="2.4" fill="#E64A38" opacity="0.3"/>
    <circle cx="456.7" cy="169.3" r="6.2" fill="#B8481A" opacity="0.4"/>
    <circle cx="252" cy="102.3" r="5.6" fill="#1C3CC0" opacity="0.4"/>
    <circle cx="252.4" cy="139.4" r="3.2" fill="#EFAE16" opacity="0.3"/>
    <circle cx="594.6" cy="164.1" r="1.6" fill="#37200F" opacity="0.6"/>
    <circle cx="473.6" cy="50.7" r="1.6" fill="#E64A38" opacity="0.6"/>
    <circle cx="497.9" cy="135.9" r="6.8" fill="#B8481A" opacity="0.6"/>
    <circle cx="541.1" cy="288.5" r="1.6" fill="#E64A38" opacity="0.4"/>
    <circle cx="397.3" cy="186" r="2.6" fill="#E64A38" opacity="0.5"/>
    <circle cx="389.6" cy="164.9" r="3" fill="#37200F" opacity="0.7"/>
    <ellipse cx="1086" cy="182.2" rx="8.6" ry="1.1" fill="#B8481A" opacity="0.6" transform="rotate(161.7 1086 182.2)"/>
    <ellipse cx="1012.7" cy="65.5" rx="7.4" ry="2" fill="#E64A38" opacity="0.8" transform="rotate(160.1 1012.7 65.5)"/>
    <circle cx="235.2" cy="90.4" r="3.1" fill="#EFAE16" opacity="0.8"/>
    <ellipse cx="539.4" cy="244.7" rx="10.9" ry="1.1" fill="#E64A38" opacity="0.3" transform="rotate(115.8 539.4 244.7)"/>
    <ellipse cx="256.3" cy="174.8" rx="6.1" ry="1.8" fill="#B8481A" opacity="0.4" transform="rotate(179.6 256.3 174.8)"/>
    <circle cx="676.3" cy="190.4" r="6" fill="#1C3CC0" opacity="0.8"/>
    <circle cx="1158.4" cy="290.4" r="3.8" fill="#1C3CC0" opacity="0.4"/>
    <ellipse cx="366.8" cy="112.4" rx="11" ry="1.6" fill="#EFAE16" opacity="0.5" transform="rotate(115.1 366.8 112.4)"/>
    <ellipse cx="1022" cy="245" rx="3.7" ry="2.6" fill="#EFAE16" opacity="0.8" transform="rotate(132.7 1022 245)"/>
    <circle cx="336.9" cy="203.4" r="2" fill="#1C3CC0" opacity="0.5"/>
    <circle cx="1184.2" cy="211.7" r="6.7" fill="#E64A38" opacity="0.6"/>
    <circle cx="198.2" cy="162.3" r="1.8" fill="#1C3CC0" opacity="0.6"/>
    <ellipse cx="707.1" cy="210.6" rx="7.2" ry="1.4" fill="#1C3CC0" opacity="0.5" transform="rotate(153.8 707.1 210.6)"/>
    <circle cx="1001.5" cy="32.9" r="4.9" fill="#E64A38" opacity="0.4"/>
    <ellipse cx="656.5" cy="196.9" rx="3.5" ry="1.8" fill="#1C3CC0" opacity="0.8" transform="rotate(159.8 656.5 196.9)"/>
    <circle cx="423.6" cy="119.8" r="5.4" fill="#B8481A" opacity="0.3"/>
    <ellipse cx="320.8" cy="213.7" rx="9.6" ry="2.7" fill="#37200F" opacity="0.3" transform="rotate(0.5 320.8 213.7)"/>
    <circle cx="242" cy="65.8" r="5.8" fill="#EFAE16" opacity="0.9"/>
    <circle cx="262.5" cy="111.4" r="2.3" fill="#EFAE16" opacity="0.6"/>
    <circle cx="41.3" cy="284.5" r="4.2" fill="#E64A38" opacity="0.4"/>
    <circle cx="294.2" cy="78.2" r="5.3" fill="#1C3CC0" opacity="0.8"/>
    <circle cx="688.3" cy="218.8" r="2.4" fill="#B8481A" opacity="0.3"/>
    <circle cx="1116.2" cy="200.5" r="1.4" fill="#EFAE16" opacity="0.7"/>
  </g>
  <rect width="1200" height="300" filter="url(#canvas)" opacity="0.05"/>
  <g class="cap" text-anchor="middle">
    <path d="M 526.2 189.6 q 36.9 -5.8, 73.8 -2.9 t 73.8 -3.6" fill="none" stroke="#1C3CC0" stroke-width="5.4" stroke-linecap="round" opacity="0.9" filter="url(#rough)"/>
    <text x="600" y="150" font-size="60" font-family="'Marker Felt','Segoe Print','Bradley Hand','Brush Script MT','Comic Sans MS',cursive" font-weight="700" paint-order="stroke" stroke="#FBF7EF" stroke-width="8" stroke-linejoin="round" fill="#37200F"><tspan x="600" dy="0.34em" textLength="180" lengthAdjust="spacingAndGlyphs">Space</tspan></text>
  </g>
</svg>
