<svg xmlns="http://www.w3.org/2000/svg" viewBox="0 0 1200 300" width="1200" height="300" role="img" aria-label="Ecology" preserveAspectRatio="xMidYMid slice">
  <defs>
    <filter id="rough" x="-15%" y="-40%" width="130%" height="180%">
      <feTurbulence type="fractalNoise" baseFrequency="0.018 0.024" numOctaves="3" seed="1" result="n"/>
      <feDisplacementMap in="SourceGraphic" in2="n" scale="13" xChannelSelector="R" yChannelSelector="G"/>
    </filter>
    <filter id="soft"><feGaussianBlur stdDeviation="18"/></filter>
    <filter id="canvas" x="0" y="0" width="100%" height="100%">
      <feTurbulence type="fractalNoise" baseFrequency="0.9" numOctaves="2" seed="91" result="t"/>
      <feColorMatrix in="t" type="matrix" values="0 0 0 0 0  0 0 0 0 0  0 0 0 0 0  0 0 0 0.6 0"/>
    </filter>
    <style>
      .cap { font-family: "Marker Felt", "Segoe Print", "Bradley Hand", "Brush Script MT", "Comic Sans MS", cursive; font-weight: 700; }
    </style>
  </defs>
  <rect width="1200" height="300" fill="#FBF7EF"/>
  <g filter="url(#soft)">
    <ellipse cx="196.4" cy="257.6" rx="262" ry="226" fill="#F3E8D5" opacity="0.9"/>
    <ellipse cx="254.5" cy="197.4" rx="254.3" ry="232.1" fill="#E9D4AE" opacity="0.9"/>
    <ellipse cx="236.1" cy="166.8" rx="305.5" ry="159.7" fill="#F3E8D5" opacity="0.5"/>
  </g>
  <g filter="url(#rough)">
    <path d="M -35.4 190.4 C 402.1 104.5, 629.9 104.5, 1183.1 196.8" fill="none" stroke="#1C3CC0" stroke-width="25.9" stroke-linecap="round" opacity="0.9"/>
    <path d="M -12.8 250.1 C 160 307, 767.3 208.6, 1234.2 277.2" fill="none" stroke="#EFAE16" stroke-width="19.3" stroke-linecap="round" opacity="0.8"/>
    <path d="M -12.8 250.1 C 160 307, 767.3 208.6, 1234.2 277.2" fill="none" stroke="#1C3CC0" stroke-width="5.9" stroke-linecap="round" opacity="0.7"/>
    <path d="M -15.2 254.1 C 320.1 198.7, 1215.4 302.6, 1223.4 232.5" fill="none" stroke="#EFAE16" stroke-width="42.2" stroke-linecap="round" opacity="0.8"/>
    <path d="M 1.7 228.5 C 115.3 295.7, 647 140.9, 1155.3 235.7" fill="none" stroke="#8E4422" stroke-width="25.8" stroke-linecap="round" opacity="0.9"/>
    <path d="M 1.7 228.5 C 115.3 295.7, 647 140.9, 1155.3 235.7" fill="none" stroke="#E64A38" stroke-width="8.7" stroke-linecap="round" opacity="0.7"/>
    <path d="M 2.2 96 C 56.7 136.1, 1057.1 22.9, 1167.6 60.7" fill="none" stroke="#EFAE16" stroke-width="26.7" stroke-linecap="round" opacity="0.9"/>
    <path d="M -24.7 210.7 C 242.8 126.8, 701.6 293, 1150.9 203.3" fill="none" stroke="#8E4422" stroke-width="17.8" stroke-linecap="round" opacity="0.9"/>
    <polygon points="352,207.3 323.8,219.1 301.5,222.5 281.5,207.3 300.9,191.5 330.7,187.2" fill="#EFAE16" opacity="0.8"/>
  </g>
  <g>
    <path d="M 595.5 282.9 q -2.7 47.5, 3.8 95.1" fill="none" stroke="#EFAE16" stroke-width="5.1" stroke-linecap="round" opacity="0.6"/>
    <circle cx="590.1" cy="378" r="6.1" fill="#EFAE16" opacity="0.6"/>
    <path d="M 172.3 241.7 q -9 32.6, 2.9 65.3" fill="none" stroke="#8E4422" stroke-width="5.4" stroke-linecap="round" opacity="0.7"/>
    <circle cx="167.6" cy="307" r="8" fill="#8E4422" opacity="0.6"/>
    <path d="M 144.9 216.7 q -0.2 26, -3.5 52.1" fill="none" stroke="#8E4422" stroke-width="3.5" stroke-linecap="round" opacity="0.5"/>
    <circle cx="139.1" cy="268.8" r="5.1" fill="#8E4422" opacity="0.8"/>
  </g>
  <g>
    <circle cx="165.4" cy="119.7" r="3.5" fill="#E64A38" opacity="0.4"/>
    <circle cx="257.4" cy="158.3" r="1.9" fill="#1C3CC0" opacity="0.5"/>
    <circle cx="851.2" cy="246.6" r="3.5" fill="#B8481A" opacity="0.6"/>
    <circle cx="291.5" cy="157.1" r="2.6" fill="#1C3CC0" opacity="0.6"/>
    <circle cx="781.4" cy="186.6" r="5.1" fill="#1C3CC0" opacity="0.3"/>
    <circle cx="804.9" cy="189.9" r="6.4" fill="#EFAE16" opacity="0.3"/>
    <circle cx="444.8" cy="96.7" r="3.5" fill="#8E4422" opacity="0.8"/>
    <circle cx="199.4" cy="163.9" r="3.1" fill="#8E4422" opacity="0.4"/>
    <circle cx="180.7" cy="281.8" r="6.4" fill="#EFAE16" opacity="0.6"/>
    <ellipse cx="826.6" cy="211.4" rx="9.9" ry="2.1" fill="#E64A38" opacity="0.5" transform="rotate(39.2 826.6 211.4)"/>
    <circle cx="164.3" cy="162.9" r="4.3" fill="#B8481A" opacity="0.4"/>
    <circle cx="280.7" cy="161.3" r="4.1" fill="#B8481A" opacity="0.5"/>
    <circle cx="233.4" cy="174.9" r="1.5" fill="#1C3CC0" opacity="0.8"/>
    <circle cx="768.8" cy="244.8" r="5.2" fill="#1C3CC0" opacity="0.3"/>
    <ellipse cx="323.6" cy="194.6" rx="4.8" ry="2" fill="#1C3CC0" opacity="0.8" transform="rotate(165.7 323.6 194.6)"/>
    <ellipse cx="299.4" cy="110.2" rx="5.3" ry="1" fill="#8E4422" opacity="0.6" transform="rotate(165.8 299.4 110.2)"/>
    <circle cx="617.5" cy="297.3" r="3.1" fill="#1C3CC0" opacity="0.7"/>
    <circle cx="14.9" cy="246" r="6.6" fill="#EFAE16" opacity="0.8"/>
    <circle cx="644.2" cy="49.6" r="6.7" fill="#E64A38" opacity="0.3"/>
    <circle cx="824.8" cy="193.5" r="2.5" fill="#E64A38" opacity="0.6"/>
    <circle cx="143" cy="151" r="4.7" fill="#EFAE16" opacity="0.9"/>
    <circle cx="259.2" cy="142.8" r="3.9" fill="#E64A38" opacity="0.4"/>
    <circle cx="830.3" cy="272.9" r="6.6" fill="#8E4422" opacity="0.6"/>
    <circle cx="718.7" cy="191.8" r="4.5" fill="#E64A38" opacity="0.6"/>
    <circle cx="1167.4" cy="206.2" r="1.5" fill="#1C3CC0" opacity="0.7"/>
    <ellipse cx="267.6" cy="134.5" rx="9.3" ry="2" fill="#1C3CC0" opacity="0.7" transform="rotate(108 267.6 134.5)"/>
    <circle cx="707.5" cy="97.9" r="3.3" fill="#EFAE16" opacity="0.7"/>
    <ellipse cx="719.5" cy="200.9" rx="8.2" ry="2.7" fill="#B8481A" opacity="0.8" transform="rotate(100.5 719.5 200.9)"/>
    <circle cx="126.9" cy="119.1" r="6.2" fill="#37200F" opacity="0.6"/>
    <circle cx="772.5" cy="209.4" r="3.8" fill="#37200F" opacity="0.9"/>
    <ellipse cx="988.1" cy="286.1" rx="10.8" ry="2.5" fill="#8E4422" opacity="0.3" transform="rotate(124.4 988.1 286.1)"/>
    <circle cx="833" cy="198.1" r="4.3" fill="#8E4422" opacity="0.5"/>
    <circle cx="557.5" cy="116.8" r="3.3" fill="#B8481A" opacity="0.8"/>
    <circle cx="293.2" cy="129.1" r="5.3" fill="#8E4422" opacity="0.7"/>
    <circle cx="581.2" cy="226.4" r="2.2" fill="#EFAE16" opacity="0.7"/>
    <circle cx="314.3" cy="201.8" r="6.6" fill="#B8481A" opacity="0.3"/>
    <ellipse cx="1051.9" cy="1.1" rx="3.1" ry="2.3" fill="#E64A38" opacity="0.7" transform="rotate(81.3 1051.9 1.1)"/>
    <circle cx="989.9" cy="287.6" r="5.6" fill="#E64A38" opacity="0.7"/>
    <circle cx="141" cy="130.8" r="6.3" fill="#1C3CC0" opacity="0.8"/>
    <circle cx="718.9" cy="212.2" r="5" fill="#1C3CC0" opacity="0.5"/>
    <circle cx="778.1" cy="195.7" r="5.9" fill="#37200F" opacity="0.6"/>
    <circle cx="803.8" cy="176" r="6" fill="#E64A38" opacity="0.8"/>
    <circle cx="300.7" cy="119.6" r="2" fill="#1C3CC0" opacity="0.5"/>
    <circle cx="801.8" cy="258.3" r="2.3" fill="#37200F" opacity="0.4"/>
  </g>
  <rect width="1200" height="300" filter="url(#canvas)" opacity="0.05"/>
  <g class="cap" text-anchor="middle">
    <path d="M 496.7 189.6 q 51.7 -5.8, 103.3 2.3 t 103.3 3.9" fill="none" stroke="#1C3CC0" stroke-width="5.4" stroke-linecap="round" opacity="0.9" filter="url(#rough)"/>
    <text x="600" y="150" font-size="60" font-family="'Marker Felt','Segoe Print','Bradley Hand','Brush Script MT','Comic Sans MS',cursive" font-weight="700" paint-order="stroke" stroke="#FBF7EF" stroke-width="8" stroke-linejoin="round" fill="#37200F"><tspan x="600" dy="0.34em" textLength="252" lengthAdjust="spacingAndGlyphs">Ecology</tspan></text>
  </g>
</svg>
