<svg xmlns="http://www.w3.org/2000/svg" viewBox="0 0 1200 300" width="1200" height="300" role="img" aria-label="Recovery" preserveAspectRatio="xMidYMid slice">
  <defs>
    <filter id="rough" x="-15%" y="-40%" width="130%" height="180%">
      <feTurbulence type="fractalNoise" baseFrequency="0.018 0.024" numOctaves="3" seed="64" result="n"/>
      <feDisplacementMap in="SourceGraphic" in2="n" scale="13" xChannelSelector="R" yChannelSelector="G"/>
    </filter>
    <filter id="soft"><feGaussianBlur stdDeviation="18"/></filter>
    <filter id="canvas" x="0" y="0" width="100%" height="100%">
      <feTurbulence type="fractalNoise" baseFrequency="0.9" numOctaves="2" seed="45" result="t"/>
      <feColorMatrix in="t" type="matrix" values="0 0 0 0 0  0 0 0 0 0  0 0 0 0 0  0 0 0 0.6 0"/>
    </filter>
    <style>
      .cap { font-family: "Marker Felt", "Segoe Print", "Bradley Hand", "Brush Script MT", "Comic Sans MS", cursive; font-weight: 700; }
    </style>
  </defs>
  <rect width="1200" height="300" fill="#FBF7EF"/>
  <g filter="url(#soft)">
    <ellipse cx="752" cy="219.7" rx="285.8" ry="168.5" fill="#F3E8D5" opacity="0.6"/>
    <ellipse cx="542.3" cy="188.1" rx="450.4" ry="211" fill="#F3E8D5" opacity="0.7"/>
  </g>
  <g filter="url(#rough)">
    <path d="M 117.8 125.8 C 606.1 68.1, 1026.2 68.1, 1218.5 133.6" fill="none" stroke="#8E4422" stroke-width="38.8" stroke-linecap="round" opacity="0.8"/>
    <path d="M -27.5 139.8 C 300.1 242.9, 1034.9 242.9, 1134.4 154.5" fill="none" stroke="#37200F" stroke-width="35.3" stroke-linecap="round" opacity="0.9"/>
    <path d="M 64.2 126 C 472.6 157.6, 1162.7 157.6, 1205.5 127.1" fill="none" stroke="#8E4422" stroke-width="39.2" stroke-linecap="round" opacity="0.9"/>
    <path d="M 64.2 126 C 472.6 157.6, 1162.7 157.6, 1205.5 127.1" fill="none" stroke="#B8481A" stroke-width="17" stroke-linecap="round" opacity="0.6"/>
    <path d="M 7 93.3 C 300.8 196.3, 1001.3 -33.3, 1217.1 79.9" fill="none" stroke="#EFAE16" stroke-width="32.7" stroke-linecap="round" opacity="1"/>
    <path d="M 38.7 225.6 C 543.2 196.9, 647.8 196.9, 1155.8 256.3" fill="none" stroke="#1C3CC0" stroke-width="34.7" stroke-linecap="round" opacity="0.8"/>
    <polygon points="518,100.6 506.5,114.5 483.9,108.8 489.1,95 507.1,85.4" fill="#E64A38" opacity="0.7"/>
    <polygon points="686.3,169.1 676.3,186.1 653.5,179.6 631.1,177.8 639.5,163.2 651,151.1 674.2,153.9" fill="#1C3CC0" opacity="0.8"/>
  </g>
  <g>
    <path d="M 227.8 142.4 q -6.2 32.2, -2 64.4" fill="none" stroke="#8E4422" stroke-width="5.4" stroke-linecap="round" opacity="0.6"/>
    <circle cx="229.6" cy="206.8" r="7.5" fill="#8E4422" opacity="0.5"/>
    <path d="M 757.6 162.4 q 0.3 27.7, -5.4 55.4" fill="none" stroke="#37200F" stroke-width="3.9" stroke-linecap="round" opacity="0.7"/>
    <circle cx="753.7" cy="217.8" r="4.8" fill="#37200F" opacity="0.8"/>
    <path d="M 309.3 127.3 q -9.3 16, -1.5 32" fill="none" stroke="#8E4422" stroke-width="3.5" stroke-linecap="round" opacity="0.7"/>
    <circle cx="312.9" cy="159.3" r="6.1" fill="#8E4422" opacity="0.7"/>
    <path d="M 159.2 90 q 7.5 48.8, -1.1 97.7" fill="none" stroke="#EFAE16" stroke-width="5.4" stroke-linecap="round" opacity="0.7"/>
    <circle cx="154.8" cy="187.7" r="8" fill="#EFAE16" opacity="0.5"/>
    <path d="M 646.2 246.9 q -9.1 34.7, 5.5 69.3" fill="none" stroke="#1C3CC0" stroke-width="5.2" stroke-linecap="round" opacity="0.6"/>
    <circle cx="642.1" cy="316.2" r="8.5" fill="#1C3CC0" opacity="0.7"/>
  </g>
  <g>
    <circle cx="538.2" cy="136.1" r="4.8" fill="#E64A38" opacity="0.7"/>
    <circle cx="562.3" cy="111" r="2.5" fill="#37200F" opacity="0.9"/>
    <circle cx="1050.3" cy="254.8" r="5.3" fill="#E64A38" opacity="0.6"/>
    <circle cx="1170" cy="94.2" r="2.2" fill="#EFAE16" opacity="0.8"/>
    <circle cx="356.9" cy="34" r="4.6" fill="#E64A38" opacity="0.9"/>
    <circle cx="1044.3" cy="94.6" r="6.7" fill="#E64A38" opacity="0.8"/>
    <circle cx="1064.2" cy="285.3" r="5.4" fill="#1C3CC0" opacity="0.9"/>
    <circle cx="1125.7" cy="261.6" r="1.6" fill="#E64A38" opacity="0.6"/>
    <circle cx="1109.9" cy="220.5" r="5.8" fill="#E64A38" opacity="0.4"/>
    <circle cx="1111.8" cy="270.7" r="4.1" fill="#EFAE16" opacity="0.5"/>
    <circle cx="55.3" cy="286.6" r="1.7" fill="#E64A38" opacity="0.6"/>
    <circle cx="1088.7" cy="259.5" r="5.4" fill="#E64A38" opacity="0.3"/>
    <ellipse cx="602" cy="86.2" rx="7.8" ry="1.2" fill="#37200F" opacity="0.3" transform="rotate(87.1 602 86.2)"/>
    <ellipse cx="568.7" cy="146.3" rx="10.2" ry="1.3" fill="#8E4422" opacity="0.6" transform="rotate(54.8 568.7 146.3)"/>
    <circle cx="543.6" cy="218.2" r="3.2" fill="#B8481A" opacity="0.8"/>
    <circle cx="1142.1" cy="197.7" r="4.4" fill="#1C3CC0" opacity="0.7"/>
    <circle cx="1013.8" cy="297.8" r="2.2" fill="#1C3CC0" opacity="0.3"/>
    <ellipse cx="1103" cy="224.6" rx="6.7" ry="2.4" fill="#E64A38" opacity="0.9" transform="rotate(44.3 1103 224.6)"/>
    <ellipse cx="1055.6" cy="194.4" rx="5.4" ry="2" fill="#1C3CC0" opacity="0.7" transform="rotate(0.5 1055.6 194.4)"/>
    <circle cx="1115" cy="283" r="2.1" fill="#EFAE16" opacity="0.7"/>
    <circle cx="1099" cy="301.5" r="5.5" fill="#8E4422" opacity="0.8"/>
    <circle cx="1138.8" cy="226.2" r="3.6" fill="#E64A38" opacity="0.4"/>
    <circle cx="1014.7" cy="280.6" r="4.9" fill="#EFAE16" opacity="0.4"/>
    <circle cx="1035.7" cy="271.8" r="6.9" fill="#E64A38" opacity="0.9"/>
    <circle cx="452.5" cy="272.9" r="4.5" fill="#37200F" opacity="0.9"/>
    <circle cx="1088.8" cy="99" r="4.3" fill="#8E4422" opacity="0.9"/>
    <circle cx="774.9" cy="13.6" r="5.5" fill="#EFAE16" opacity="0.8"/>
    <circle cx="401.1" cy="156.3" r="3.5" fill="#E64A38" opacity="0.5"/>
    <circle cx="734.6" cy="2.1" r="3.9" fill="#1C3CC0" opacity="0.8"/>
    <circle cx="546.1" cy="158.2" r="3.4" fill="#B8481A" opacity="0.4"/>
    <circle cx="1046.4" cy="163.9" r="4.5" fill="#E64A38" opacity="0.7"/>
    <circle cx="1045.9" cy="262" r="1.4" fill="#37200F" opacity="0.9"/>
    <circle cx="1199" cy="310.7" r="1.2" fill="#1C3CC0" opacity="0.3"/>
    <circle cx="553.4" cy="121.5" r="2.6" fill="#37200F" opacity="0.6"/>
    <circle cx="1114" cy="239.5" r="6" fill="#1C3CC0" opacity="0.3"/>
    <circle cx="215" cy="117" r="6.4" fill="#EFAE16" opacity="0.7"/>
  </g>
  <rect width="1200" height="300" filter="url(#canvas)" opacity="0.05"/>
  <g class="cap" text-anchor="middle">
    <path d="M 481.9 189.6 q 59 -2.4, 118.1 0.2 t 118.1 -2.8" fill="none" stroke="#1C3CC0" stroke-width="5.4" stroke-linecap="round" opacity="0.9" filter="url(#rough)"/>
    <text x="600" y="150" font-size="60" font-family="'Marker Felt','Segoe Print','Bradley Hand','Brush Script MT','Comic Sans MS',cursive" font-weight="700" paint-order="stroke" stroke="#FBF7EF" stroke-width="8" stroke-linejoin="round" fill="#37200F"><tspan x="600" dy="0.34em" textLength="288" lengthAdjust="spacingAndGlyphs">Recovery</tspan></text>
  </g>
</svg>
